<svg width="57" height="56" fill="none" xmlns="http://www.w3.org/2000/svg"><g clip-path="url(#a)" fill="#fff"><path d="M40.605 36.075a14.592 14.592 0 0 1-11.253 5.27 14.59 14.59 0 0 1-11.252-5.27l4.246-2.434a9.768 9.768 0 0 0 7.006 2.951 9.769 9.769 0 0 0 7.007-2.951l4.246 2.434Zm3.318-9.201c0 1.783-.328 3.489-.926 5.08l-4.246-2.435a9.945 9.945 0 0 0 .366-2.645c0-4.543-3.146-8.357-7.373-9.41v-4.87c6.91 1.132 12.18 7.092 12.18 14.28ZM26.96 12.575v4.869c-4.227 1.054-7.373 4.887-7.373 9.41 0 .92.135 1.802.367 2.646l-4.246 2.434a14.3 14.3 0 0 1-.927-5.08c0-7.168 5.27-13.129 12.18-14.279Z"/><path d="M6.885 27.064c0-.882.058-1.763.155-2.626a4.836 4.836 0 0 0 3.416-4.619c0-2.683-2.181-4.85-4.883-4.85S.689 17.137.689 19.82c0 1.438.637 2.722 1.641 3.623a28.08 28.08 0 0 0-.25 3.622c0 13.034 9.322 23.94 21.694 26.508v-4.888c-9.69-2.472-16.889-11.231-16.889-21.62Zm49.742-.001c0-2.952-.483-5.808-1.37-8.472l-4.266 2.453c.54 1.917.83 3.93.83 6.019 0 9.18-5.617 17.077-13.608 20.49a4.902 4.902 0 0 0-3.3-1.266c-2.703 0-4.884 2.166-4.884 4.85 0 2.683 2.181 4.849 4.884 4.849a4.896 4.896 0 0 0 4.786-3.872c9.921-4.064 16.928-13.762 16.928-25.051ZM42.67 10.255c0 2.684 2.181 4.85 4.883 4.85s4.883-2.166 4.883-4.85c0-2.683-2.18-4.849-4.883-4.849-.54 0-1.042.096-1.525.25A27.227 27.227 0 0 0 29.371 0 27.257 27.257 0 0 0 9.047 9.048l4.265 2.453a22.479 22.479 0 0 1 16.06-6.727A22.36 22.36 0 0 1 42.805 9.22a3.556 3.556 0 0 0-.135 1.035ZM29.353 31.952c2.835 0 5.134-2.283 5.134-5.099 0-2.815-2.299-5.098-5.134-5.098-2.836 0-5.134 2.283-5.134 5.098 0 2.816 2.298 5.099 5.134 5.099Z"/></g><defs><clipPath id="a"><path fill="#fff" transform="translate(.666 .001)" d="M0 0h56v56H0z"/></clipPath></defs></svg>