<svg width="54" height="55" fill="none" xmlns="http://www.w3.org/2000/svg"><path d="M23 14.167v4m8-4v4m-8 18.667v4m8-4v4M36.332 23.5h4m-4 6.667h4M13.666 23.5h4m-4 6.667h4m6.4 6.667h5.867c2.24 0 3.36 0 4.216-.436a4 4 0 0 0 1.748-1.748c.436-.856.436-1.976.436-4.216v-5.867c0-2.24 0-3.36-.436-4.216a4 4 0 0 0-1.748-1.748c-.856-.436-1.976-.436-4.216-.436h-5.867c-2.24 0-3.36 0-4.216.436a4 4 0 0 0-1.748 1.748c-.436.856-.436 1.976-.436 4.216v5.867c0 2.24 0 3.36.436 4.216a4 4 0 0 0 1.748 1.748c.856.436 1.976.436 4.216.436Z" stroke="#fff" stroke-width="2.667" stroke-linecap="round" stroke-linejoin="round"/></svg>