<svg width="1057" height="1178" fill="none" xmlns="http://www.w3.org/2000/svg"><g clip-path="url(#a)"><g filter="url(#b)"><path d="M865.998 526.001c0 31.473 14.957 189.572-60 280-74.113 89.409-237.952 111.333-272 111.333-68.483 0 272-244-34.667-430.667-338.666 0-.483-201.333 68-201.333s298.667 178.074 298.667 240.667Z" fill="url(#c)"/></g><path d="m198.473 292.863 616 617.333m-617.278-.333 616.667-616.667" stroke="#fff" stroke-opacity=".14" stroke-width="1.333" stroke-dasharray="6.67 6.67"/><path d="M505.334 782.668c98.307 0 178-79.693 178-178s-79.693-178-178-178-178 79.693-178 178 79.693 178 178 178Z" fill="#070707" fill-opacity=".25"/><path d="M506.001 1087.33c266.937 0 483.333-216.392 483.333-483.329S772.938 120.668 506.001 120.668 22.668 337.064 22.668 604.001s216.396 483.329 483.333 483.329Z" stroke="#191919" stroke-width="9.333" stroke-dasharray="4 4"/><path d="M506.002 958.001c195.509 0 354-158.491 354-354s-158.491-354-354-354-354 158.491-354 354 158.491 354 354 354Z" stroke="url(#d)" stroke-width="1.333"/><mask id="e" style="mask-type:luminance" maskUnits="userSpaceOnUse" x="798" y="216" width="86" height="86"><path d="M883.333 258.668c0-23.565-19.102-42.667-42.666-42.667-23.565 0-42.667 19.102-42.667 42.667 0 23.564 19.102 42.666 42.667 42.666 23.564 0 42.666-19.102 42.666-42.666Z" fill="#fff"/></mask><g mask="url(#e)"><g filter="url(#f)"><path d="M840.666 308.001c11.046 0 20-6.566 20-14.666 0-8.101-8.954-14.667-20-14.667s-20 6.566-20 14.667c0 8.1 8.954 14.666 20 14.666Z" fill="#8069DF" fill-opacity=".5"/></g><path d="M840.667 301.334c23.564 0 42.666-19.102 42.666-42.666 0-23.564-19.102-42.667-42.666-42.667-23.564 0-42.667 19.103-42.667 42.667s19.103 42.666 42.667 42.666Z" fill="#8069DF" fill-opacity=".05"/><path d="M840.666 300.668c23.196 0 42-18.804 42-42s-18.804-42-42-42-42 18.804-42 42 18.804 42 42 42Z" stroke="url(#g)" stroke-width="1.333"/><path d="M844.666 272.002c-.547 0-1-.454-1-1v-24.667c0-.547.453-1 1-1 .547 0 1 .453 1 1v24.667c0 .546-.453 1-1 1Z" fill="#8069DF"/><path d="M848.666 269.334h-4v-21.333h4a5.332 5.332 0 0 1 5.333 5.333v10.667a5.33 5.33 0 0 1-5.333 5.333Zm-16.001-21.333a5.332 5.332 0 0 0-5.333 5.333v10.667a5.332 5.332 0 0 0 5.333 5.333h6.667c.733 0 1.333-.6 1.333-1.333v-18.667c0-.733-.6-1.333-1.333-1.333h-6.667Zm2.334 15.333c0 .547-.454 1-1 1-.547 0-1-.453-1-1v-9.333c0-.547.453-1 1-1 .546 0 1 .453 1 1v9.333Z" fill="#8069DF"/></g><mask id="h" style="mask-type:luminance" maskUnits="userSpaceOnUse" x="126" y="221" width="86" height="86"><path d="M211.333 264.001c0-23.565-19.102-42.667-42.666-42.667-23.564 0-42.667 19.102-42.667 42.667 0 23.564 19.103 42.666 42.667 42.666s42.666-19.102 42.666-42.666Z" fill="#fff"/></mask><g mask="url(#h)"><g filter="url(#i)"><path d="M168.666 313.334c11.046 0 20-6.566 20-14.666 0-8.101-8.954-14.667-20-14.667s-20 6.566-20 14.667c0 8.1 8.954 14.666 20 14.666Z" fill="#19E183" fill-opacity=".5"/></g><path d="M168.667 306.667c23.564 0 42.666-19.102 42.666-42.666 0-23.564-19.102-42.667-42.666-42.667-23.564 0-42.667 19.103-42.667 42.667s19.103 42.666 42.667 42.666Z" fill="#19E183" fill-opacity=".05"/><path d="M168.666 306.001c23.196 0 42-18.804 42-42s-18.804-42-42-42-42 18.804-42 42 18.804 42 42 42Z" stroke="url(#j)" stroke-width="1.333"/><path d="M179.465 260.295c-2.413 0-3.4-1.707-2.2-3.8a2.53 2.53 0 0 0-.933-3.454l-2.307-1.32c-1.053-.626-2.413-.253-3.04.8l-.146.254c-1.2 2.093-3.174 2.093-4.387 0l-.147-.254a2.189 2.189 0 0 0-3.013-.8l-2.307 1.32c-1.213.694-1.626 2.254-.933 3.467 1.213 2.08.227 3.787-2.187 3.787a2.54 2.54 0 0 0-2.533 2.533v2.347a2.54 2.54 0 0 0 2.533 2.533c2.414 0 3.4 1.707 2.187 3.8a2.529 2.529 0 0 0 .933 3.453l2.307 1.32c1.053.627 2.413.254 3.04-.8l.147-.253c1.2-2.093 3.173-2.093 4.386 0l.147.253c.627 1.054 1.987 1.427 3.04.8l2.307-1.32a2.532 2.532 0 0 0 .933-3.453c-1.213-2.093-.227-3.8 2.187-3.8a2.54 2.54 0 0 0 2.533-2.533v-2.347a2.56 2.56 0 0 0-2.547-2.533Zm-10.8 8.04a4.342 4.342 0 0 1-4.333-4.334 4.342 4.342 0 0 1 4.333-4.333 4.342 4.342 0 0 1 4.334 4.333 4.342 4.342 0 0 1-4.334 4.334Z" fill="#19E183"/></g><mask id="k" style="mask-type:luminance" maskUnits="userSpaceOnUse" x="110" y="884" width="86" height="86"><path d="M195.333 926.668c0-23.564-19.102-42.667-42.666-42.667-23.564 0-42.667 19.103-42.667 42.667s19.103 42.666 42.667 42.666 42.666-19.102 42.666-42.666Z" fill="#fff"/></mask><g mask="url(#k)"><g filter="url(#l)"><path d="M152.666 976.001c11.046 0 20-6.566 20-14.666 0-8.1-8.954-14.667-20-14.667s-20 6.567-20 14.667 8.954 14.666 20 14.666Z" fill="#0166FF" fill-opacity=".5"/></g><path d="M152.667 969.334c23.564 0 42.666-19.102 42.666-42.666 0-23.564-19.102-42.667-42.666-42.667-23.564 0-42.667 19.103-42.667 42.667s19.103 42.666 42.667 42.666Z" fill="#0166FF" fill-opacity=".05"/><path d="M152.666 968.668c23.196 0 42-18.804 42-42s-18.804-42-42-42-42 18.804-42 42 18.804 42 42 42Z" stroke="url(#m)" stroke-width="1.333"/><path d="M164.799 921.162a4.636 4.636 0 0 0 1.2-3.12c0-2.6-2.107-4.707-4.707-4.707-1.16 0-2.253.427-3.107 1.2-1.72-.8-3.573-1.2-5.52-1.2-1.906 0-3.8.413-5.506 1.2a4.636 4.636 0 0 0-3.12-1.2 4.706 4.706 0 0 0-4.707 4.707c0 1.16.427 2.266 1.2 3.12-.787 1.706-1.2 3.6-1.2 5.506 0 1.947.4 3.8 1.2 5.52a4.604 4.604 0 0 0-1.2 3.107c0 2.6 2.107 4.707 4.707 4.707 1.16 0 2.266-.427 3.12-1.2 1.706.786 3.6 1.2 5.506 1.2 1.947 0 3.8-.4 5.52-1.2a4.604 4.604 0 0 0 3.107 1.2c2.6 0 4.707-2.107 4.707-4.707 0-1.16-.427-2.253-1.2-3.107.8-1.72 1.2-3.573 1.2-5.52 0-1.906-.414-3.8-1.2-5.506Zm-1.894 9.733c-.146-.053-.293-.107-.44-.147a6.398 6.398 0 0 0-.693-.12 5.936 5.936 0 0 0-.48-.026 4.7 4.7 0 0 0-4.693 4.693c0 .16.013.32.026.48.027.227.067.467.12.693.04.147.094.294.147.44 0 .04.013.08.04.12l.04.12c-2.68 1.12-5.88 1.134-8.613 0l.04-.12a.22.22 0 0 0 .04-.12c.053-.146.106-.293.146-.44.054-.226.094-.466.12-.693.014-.16.027-.32.027-.48a4.7 4.7 0 0 0-4.693-4.693c-.16 0-.32.013-.48.026a6.458 6.458 0 0 0-.694.12c-.146.04-.293.094-.44.147-.04 0-.08.013-.12.04l-.12.04c-.573-1.347-.853-2.8-.853-4.307 0-1.48.293-2.96.853-4.306.014 0 .04.013.054.013a4.578 4.578 0 0 1-1.107-.64c.4.307.827.547 1.293.707.16.066.334.12.494.16.106.026.2.04.293.053.12.027.227.04.347.053.16.014.32.027.48.027a4.7 4.7 0 0 0 4.693-4.693c0-.16-.013-.32-.027-.48a2.97 2.97 0 0 0-.053-.347 2.818 2.818 0 0 0-.053-.293 3.638 3.638 0 0 0-.16-.494 4.536 4.536 0 0 0-.294-.666c.08.146.16.32.227.48 0-.014-.013-.04-.013-.054 2.72-1.133 5.933-1.12 8.613 0l-.04.12a.213.213 0 0 0-.04.12c-.053.147-.107.294-.147.44a6.458 6.458 0 0 0-.12.694c-.013.16-.026.32-.026.48a4.7 4.7 0 0 0 4.693 4.693c.16 0 .32-.013.48-.027.227-.026.467-.066.693-.12.147-.04.294-.093.44-.146a.22.22 0 0 0 .12-.04l.12-.04c.56 1.346.854 2.826.854 4.306 0 1.507-.28 2.96-.854 4.307l-.12-.04a.213.213 0 0 0-.12-.04Z" fill="#0166FF"/></g><mask id="n" style="mask-type:luminance" maskUnits="userSpaceOnUse" x="802" y="897" width="86" height="86"><path d="M887.333 940.001c0-23.564-19.102-42.667-42.666-42.667-23.565 0-42.667 19.103-42.667 42.667s19.102 42.666 42.667 42.666c23.564 0 42.666-19.102 42.666-42.666Z" fill="#fff"/></mask><g mask="url(#n)"><g filter="url(#o)"><path d="M844.666 989.333c11.046 0 20-6.566 20-14.666 0-8.101-8.954-14.667-20-14.667s-20 6.566-20 14.667c0 8.1 8.954 14.666 20 14.666Z" fill="#D8BF40" fill-opacity=".5"/></g><path d="M844.667 982.667c23.564 0 42.666-19.102 42.666-42.666 0-23.564-19.102-42.667-42.666-42.667-23.564 0-42.667 19.103-42.667 42.667s19.103 42.666 42.667 42.666Z" fill="#D8BF40" fill-opacity=".05"/><path d="M844.666 982.001c23.196 0 42-18.804 42-42s-18.804-42-42-42-42 18.804-42 42 18.804 42 42 42Z" stroke="url(#p)" stroke-width="1.333"/><path d="M856.999 936.199c-3.08-4.84-7.587-7.627-12.334-7.627-2.373 0-4.68.694-6.786 1.987-2.107 1.307-4 3.213-5.547 5.64-1.333 2.093-1.333 5.493 0 7.587 3.08 4.853 7.587 7.626 12.333 7.626 2.374 0 4.68-.693 6.787-1.986 2.107-1.307 4-3.214 5.547-5.64 1.333-2.08 1.333-5.494 0-7.587Zm-12.334 9.187a5.38 5.38 0 0 1-5.386-5.387 5.38 5.38 0 0 1 5.386-5.387 5.38 5.38 0 0 1 5.387 5.387 5.38 5.38 0 0 1-5.387 5.387Z" fill="#D8BF40"/><path d="M844.667 936.188a3.809 3.809 0 0 0-3.8 3.812 3.808 3.808 0 0 0 3.8 3.801c2.094 0 3.814-1.708 3.814-3.801a3.828 3.828 0 0 0-3.814-3.812Z" fill="#D8BF40"/></g><path d="M504.668 658.001c29.823 0 54-24.177 54-54s-24.177-54-54-54-54 24.177-54 54 24.177 54 54 54Zm4-508c14.359 0 26-11.641 26-26s-11.641-26-26-26-26 11.641-26 26 11.641 26 26 26Z" fill="#14181B" stroke="#2F2D30" stroke-width="1.333"/><path d="M501.555 124h14.222m0 0-5.333-5.333m5.333 5.333-5.333 5.334" stroke="#fff" stroke-opacity=".2" stroke-width="1.333" stroke-linecap="round" stroke-linejoin="round"/><path d="M508.664 1060.67c-14.359 0-26 11.64-26 26s11.641 26 26 26 26-11.64 26-26-11.641-26-26-26Z" fill="#14181B" stroke="#2F2D30" stroke-width="1.333"/><path d="M515.777 1086.67h-14.222m0 0 5.333 5.33m-5.333-5.33 5.333-5.34" stroke="#fff" stroke-opacity=".2" stroke-width="1.333" stroke-linecap="round" stroke-linejoin="round"/></g><defs><linearGradient id="c" x1="271.333" y1="285.334" x2="927.999" y2="934.001" gradientUnits="userSpaceOnUse"><stop offset=".1" stop-color="#1B7042"/><stop offset=".53" stop-color="#3E3CA2"/><stop offset="1" stop-color="#BB4E9C"/></linearGradient><linearGradient id="d" x1="31.335" y1="792.667" x2="908.002" y2="386.667" gradientUnits="userSpaceOnUse"><stop stop-color="#3A8F2D"/><stop offset=".475" stop-color="#4D7562" stop-opacity="0"/><stop offset="1" stop-color="#63599C"/></linearGradient><linearGradient id="g" x1="840.666" y1="167.334" x2="840.666" y2="301.334" gradientUnits="userSpaceOnUse"><stop stop-color="#2F2D30"/><stop offset="1" stop-color="#2F2D30" stop-opacity="0"/></linearGradient><linearGradient id="j" x1="168.666" y1="172.667" x2="168.666" y2="306.667" gradientUnits="userSpaceOnUse"><stop stop-color="#2F2D30"/><stop offset="1" stop-color="#2F2D30" stop-opacity="0"/></linearGradient><linearGradient id="m" x1="152.666" y1="835.334" x2="152.666" y2="969.334" gradientUnits="userSpaceOnUse"><stop stop-color="#2F2D30"/><stop offset="1" stop-color="#2F2D30" stop-opacity="0"/></linearGradient><linearGradient id="p" x1="844.666" y1="848.667" x2="844.666" y2="982.667" gradientUnits="userSpaceOnUse"><stop stop-color="#2F2D30"/><stop offset="1" stop-color="#2F2D30" stop-opacity="0"/></linearGradient><filter id="b" x="65.777" y="0" width="1086.77" height="1202.67" filterUnits="userSpaceOnUse" color-interpolation-filters="sRGB"><feFlood flood-opacity="0" result="BackgroundImageFix"/><feBlend in="SourceGraphic" in2="BackgroundImageFix" result="shape"/><feGaussianBlur stdDeviation="142.667" result="effect1_foregroundBlur_2059_530"/></filter><filter id="f" x="801.999" y="260.001" width="77.333" height="66.666" filterUnits="userSpaceOnUse" color-interpolation-filters="sRGB"><feFlood flood-opacity="0" result="BackgroundImageFix"/><feBlend in="SourceGraphic" in2="BackgroundImageFix" result="shape"/><feGaussianBlur stdDeviation="9.333" result="effect1_foregroundBlur_2059_530"/></filter><filter id="i" x="129.999" y="265.334" width="77.333" height="66.666" filterUnits="userSpaceOnUse" color-interpolation-filters="sRGB"><feFlood flood-opacity="0" result="BackgroundImageFix"/><feBlend in="SourceGraphic" in2="BackgroundImageFix" result="shape"/><feGaussianBlur stdDeviation="9.333" result="effect1_foregroundBlur_2059_530"/></filter><filter id="l" x="113.999" y="928.001" width="77.333" height="66.666" filterUnits="userSpaceOnUse" color-interpolation-filters="sRGB"><feFlood flood-opacity="0" result="BackgroundImageFix"/><feBlend in="SourceGraphic" in2="BackgroundImageFix" result="shape"/><feGaussianBlur stdDeviation="9.333" result="effect1_foregroundBlur_2059_530"/></filter><filter id="o" x="805.999" y="941.333" width="77.333" height="66.666" filterUnits="userSpaceOnUse" color-interpolation-filters="sRGB"><feFlood flood-opacity="0" result="BackgroundImageFix"/><feBlend in="SourceGraphic" in2="BackgroundImageFix" result="shape"/><feGaussianBlur stdDeviation="9.333" result="effect1_foregroundBlur_2059_530"/></filter><clipPath id="a"><path fill="#fff" d="M0 0h1057v1178H0z"/></clipPath></defs></svg>