<svg width="171" height="33" fill="none" xmlns="http://www.w3.org/2000/svg"><g clip-path="url(#a)" fill="#fff"><path d="M23.155 20.947a8.339 8.339 0 0 1-6.43 3.012 8.339 8.339 0 0 1-6.43-3.012l2.426-1.391a5.582 5.582 0 0 0 4.004 1.686 5.582 5.582 0 0 0 4.004-1.686l2.426 1.39Zm1.896-5.258a8.216 8.216 0 0 1-.53 2.902l-2.425-1.39c.132-.483.209-.986.209-1.512 0-2.596-1.798-4.775-4.213-5.378V7.53c3.948.647 6.96 4.053 6.96 8.16Zm-9.693-8.17V10.3c-2.415.603-4.213 2.793-4.213 5.378 0 .526.077 1.03.21 1.512l-2.427 1.39a8.17 8.17 0 0 1-.53-2.902c0-4.096 3.011-7.502 6.96-8.16Z"/><path d="M3.888 15.798c0-.504.033-1.008.088-1.5a2.764 2.764 0 0 0 1.953-2.64 2.777 2.777 0 0 0-2.79-2.771 2.777 2.777 0 0 0-2.791 2.77c0 .822.364 1.556.937 2.07a16.044 16.044 0 0 0-.143 2.07c0 7.448 5.327 13.68 12.397 15.148v-2.793c-5.537-1.413-9.65-6.418-9.65-12.354Zm28.424-.001a15.31 15.31 0 0 0-.783-4.84l-2.438 1.401c.309 1.095.474 2.245.474 3.44 0 5.246-3.21 9.758-7.775 11.708a2.8 2.8 0 0 0-1.886-.723 2.777 2.777 0 0 0-2.79 2.77 2.777 2.777 0 0 0 2.79 2.772c1.345 0 2.47-.953 2.735-2.213 5.67-2.322 9.673-7.864 9.673-14.315Zm-7.976-9.604a2.777 2.777 0 0 0 2.79 2.77 2.777 2.777 0 0 0 2.791-2.77 2.777 2.777 0 0 0-3.662-2.629A15.558 15.558 0 0 0 16.737.333c-4.61 0-8.757 1.993-11.614 5.17l2.438 1.402a12.845 12.845 0 0 1 9.176-3.845c2.879 0 5.537.942 7.676 2.541a2.023 2.023 0 0 0-.077.592ZM16.727 18.59a2.924 2.924 0 0 0 2.934-2.913 2.924 2.924 0 0 0-2.934-2.913 2.924 2.924 0 0 0-2.934 2.913 2.924 2.924 0 0 0 2.934 2.914Z"/></g><path d="M50.635 24.542c-1.319 0-2.496-.323-3.53-.97-1.036-.645-1.851-1.562-2.449-2.75-.59-1.194-.885-2.607-.885-4.239 0-1.639.295-3.055.885-4.25.598-1.194 1.413-2.114 2.448-2.76 1.035-.646 2.212-.969 3.531-.969 1.327 0 2.504.323 3.532.969 1.027.646 1.837 1.566 2.427 2.76.59 1.195.885 2.611.885 4.25 0 1.632-.295 3.045-.885 4.24-.59 1.187-1.4 2.104-2.427 2.75-1.028.646-2.205.969-3.532.969Zm0-1.75c.938 0 1.785-.237 2.542-.709.764-.479 1.368-1.18 1.813-2.104.451-.924.677-2.055.677-3.396 0-1.347-.226-2.482-.677-3.406-.445-.93-1.049-1.632-1.813-2.104a4.654 4.654 0 0 0-2.542-.719c-.937 0-1.788.24-2.552.719-.764.472-1.371 1.173-1.823 2.104-.451.924-.677 2.059-.677 3.406 0 1.34.226 2.473.677 3.396.452.924 1.06 1.625 1.823 2.104a4.757 4.757 0 0 0 2.552.709Zm8.76 5.895v-16h1.71v1.855h.208c.131-.202.316-.459.552-.771.236-.32.576-.604 1.02-.854.445-.25 1.046-.375 1.803-.375.979 0 1.84.246 2.583.74.743.485 1.323 1.18 1.74 2.082.423.896.635 1.955.635 3.178 0 1.229-.209 2.298-.625 3.208-.417.903-.997 1.6-1.74 2.094-.743.493-1.6.74-2.573.74-.743 0-1.34-.126-1.791-.376-.452-.257-.799-.545-1.042-.864-.243-.327-.43-.594-.563-.802h-.145v6.145h-1.771Zm5.084-5.708c.743 0 1.365-.198 1.865-.594.5-.402.875-.94 1.125-1.614.257-.674.385-1.424.385-2.25 0-.82-.125-1.56-.375-2.219-.25-.66-.625-1.184-1.125-1.573-.493-.389-1.118-.583-1.875-.583-.729 0-1.34.184-1.833.552-.493.36-.868.871-1.125 1.531-.25.653-.375 1.417-.375 2.292 0 .875.128 1.65.385 2.323.257.666.632 1.19 1.125 1.573.5.375 1.108.562 1.823.562Zm14.23-3.396v-6.896h1.77v11.646h-1.77v-1.979h-.126c-.277.59-.704 1.094-1.28 1.51-.57.417-1.296.622-2.178.615-.73 0-1.375-.156-1.938-.469-.562-.32-1.006-.805-1.333-1.458-.32-.653-.479-1.476-.479-2.469v-7.396h1.77v7.292c0 .84.24 1.514.72 2.02.486.508 1.1.758 1.843.75.445 0 .896-.11 1.355-.332.465-.23.854-.577 1.166-1.042.32-.472.48-1.07.48-1.792ZM91 15.313l-1.604.437c-.153-.396-.417-.77-.792-1.125-.368-.361-.944-.542-1.729-.542-.708 0-1.299.167-1.77.5-.473.327-.71.736-.71 1.23 0 .444.16.798.48 1.062.326.264.833.48 1.52.646l1.73.416c1.035.25 1.806.636 2.313 1.157.513.52.77 1.184.77 1.99a2.98 2.98 0 0 1-.573 1.79c-.382.529-.913.945-1.593 1.25-.68.306-1.473.46-2.375.46-1.188 0-2.17-.261-2.948-.782-.771-.52-1.26-1.274-1.469-2.26l1.688-.417c.16.625.465 1.094.916 1.406.459.313 1.056.469 1.792.469.826 0 1.486-.177 1.979-.531.5-.361.75-.789.75-1.282 0-.819-.576-1.368-1.73-1.645l-1.937-.459c-1.07-.257-1.854-.65-2.354-1.177-.5-.528-.75-1.19-.75-1.99 0-.66.184-1.242.552-1.75.375-.506.886-.902 1.531-1.187.646-.292 1.376-.437 2.188-.437 1.16 0 2.066.257 2.719.77.66.507 1.128 1.174 1.406 2Zm7.146 9.02V8.813h1.875v13.854h7.229v1.666h-9.104Zm14.187.271a4.753 4.753 0 0 1-2.01-.417 3.456 3.456 0 0 1-1.438-1.229c-.354-.534-.531-1.18-.531-1.937 0-.667.132-1.205.396-1.615a2.8 2.8 0 0 1 1.052-.979 5.56 5.56 0 0 1 1.458-.542 18.26 18.26 0 0 1 1.615-.28c.708-.091 1.281-.16 1.719-.21.444-.048.767-.131.969-.25.208-.117.312-.319.312-.603v-.063c0-.743-.205-1.32-.615-1.73-.402-.416-1.017-.624-1.843-.624-.848 0-1.514.187-2 .562-.486.369-.827.764-1.021 1.188l-1.708-.604c.305-.709.711-1.26 1.218-1.657a4.709 4.709 0 0 1 1.667-.833 6.946 6.946 0 0 1 1.781-.24c.375 0 .806.046 1.292.136.486.083.958.264 1.417.542.465.27.847.684 1.145 1.24.306.548.459 1.284.459 2.208v7.666h-1.792V22.75h-.083c-.118.25-.32.52-.604.812-.285.285-.664.532-1.136.74-.465.201-1.038.302-1.719.302Zm.271-1.604c.709 0 1.306-.139 1.792-.417a2.873 2.873 0 0 0 1.104-1.073c.25-.444.375-.906.375-1.385v-1.646c-.076.09-.243.174-.5.25-.25.07-.542.132-.875.188a26.9 26.9 0 0 1-.958.145l-.75.084c-.466.062-.9.163-1.302.302a2.31 2.31 0 0 0-.98.594c-.243.263-.364.625-.364 1.083 0 .618.229 1.087.687 1.406.466.313 1.056.469 1.771.469Zm8.084 5.687a3.643 3.643 0 0 1-.813-.062 2.246 2.246 0 0 1-.5-.146l.458-1.562.177.041c.598.14 1.098.108 1.5-.093.41-.195.768-.712 1.073-1.553l.334-.916-4.292-11.709h1.938l3.208 9.292h.125l3.208-9.292h1.938l-4.938 13.334c-.222.604-.496 1.104-.823 1.5a3.038 3.038 0 0 1-1.135.875 3.508 3.508 0 0 1-1.458.291Zm14.187-4.104c-1.118 0-2.087-.25-2.906-.75-.813-.5-1.438-1.198-1.875-2.093-.438-.903-.656-1.948-.656-3.136 0-1.194.215-2.246.645-3.156.431-.91 1.035-1.622 1.813-2.136.785-.513 1.701-.77 2.75-.77.604 0 1.205.1 1.802.302a4.47 4.47 0 0 1 1.625.979c.493.451.885 1.048 1.177 1.791.292.744.438 1.657.438 2.74v.77h-8.98v-1.54h8.011l-.823.583c0-.778-.122-1.47-.365-2.073-.243-.605-.607-1.08-1.093-1.427-.48-.348-1.077-.521-1.792-.521-.715 0-1.33.177-1.844.531a3.426 3.426 0 0 0-1.167 1.365 4.135 4.135 0 0 0-.406 1.812v1.02c0 .883.153 1.63.459 2.24.305.612.732 1.077 1.281 1.396.548.313 1.184.47 1.906.47.465 0 .889-.067 1.271-.199a2.73 2.73 0 0 0 .989-.614 2.74 2.74 0 0 0 .636-1.021l1.729.5a3.805 3.805 0 0 1-.917 1.541A4.435 4.435 0 0 1 137 24.22c-.632.243-1.34.364-2.125.364Zm6.5-.25V12.687h1.708v1.771h.125c.216-.576.601-1.041 1.157-1.396a3.415 3.415 0 0 1 1.885-.541c.132 0 .295.003.49.01a8.2 8.2 0 0 1 .448.01v1.813a6.253 6.253 0 0 0-1.105-.104c-.562 0-1.066.118-1.51.354a2.72 2.72 0 0 0-1.052.969c-.25.41-.375.878-.375 1.406v7.354h-1.771Zm12.813 0h-1.98l5.709-15.52h1.937l5.688 15.52h-1.959l-4.645-13.062h-.125l-4.625 13.062Zm.729-6.062h7.937v1.666h-7.937v-1.666Zm13.916-9.459v15.521h-1.875V8.813h1.875Z" fill="#fff"/><defs><clipPath id="a"><path fill="#fff" transform="translate(.334 .333)" d="M0 0h32v32H0z"/></clipPath></defs></svg>