<svg width="25" height="25" fill="none" xmlns="http://www.w3.org/2000/svg"><path d="m19.834 7.833-1.49 1.49-3-3 1.49-1.49c.42-.42.96-.62 1.5-.62s1.08.2 1.5.62c.83.83.83 2.17 0 3Zm-2.191 2.2-10.81 10.8c-.83.83-2.17.83-3 0-.83-.83-.83-2.17 0-3l10.81-10.8 3 3Zm-7.359-6.2.41-1.39c.04-.13 0-.27-.09-.37a.38.38 0 0 0-.38-.1l-1.39.41-1.39-.41c-.13-.04-.27 0-.37.09-.1.1-.13.24-.09.37l.4 1.4-.41 1.39c-.04.13 0 .27.09.37.1.1.24.13.37.09l1.4-.4 1.39.41c.04.01.07.02.11.02.1 0 .19-.04.27-.11.1-.1.13-.24.09-.37l-.41-1.4Zm-4 6 .41-1.39c.04-.13 0-.27-.09-.37-.1-.1-.24-.13-.37-.09l-1.4.4-1.39-.41c-.13-.04-.27 0-.37.09-.1.1-.13.24-.09.37l.4 1.4-.41 1.39c-.04.13 0 .27.09.37.1.1.24.13.37.09l1.39-.41 1.39.41c.03.01.07.01.11.01.1 0 .19-.04.27-.11.1-.1.13-.24.09-.37l-.4-1.38Zm15 5 .41-1.39c.04-.13 0-.27-.09-.37-.1-.1-.24-.13-.37-.09l-1.39.41-1.39-.41c-.13-.04-.27 0-.37.09-.1.1-.13.24-.09.37l.41 1.39-.41 1.39c-.04.13 0 .27.09.37.1.1.24.13.37.09l1.39-.41 1.39.41c.03.01.07.01.11.01.1 0 .19-.04.27-.11.1-.1.13-.24.09-.37l-.42-1.38Z" fill="#fff"/></svg>