<svg width="54" height="54" fill="none" xmlns="http://www.w3.org/2000/svg"><rect width="53.333" height="53.333" rx="13.333" fill="#fff"/><path d="M20.666 26.667c0-.884.197-1.724.547-2.484.272-.588.225-1.304-.233-1.762l-3.436-3.436c-.547-.547-1.448-.518-1.89.117a13.205 13.205 0 0 0-2.361 7.565c0 2.806.866 5.412 2.35 7.56.44.637 1.343.668 1.89.121l3.445-3.435c.46-.458.506-1.175.235-1.764a5.912 5.912 0 0 1-.547-2.482Zm5.999-6a5.91 5.91 0 0 1 2.484.548c.588.271 1.304.224 1.762-.234l3.4-3.399c.545-.545.517-1.445-.115-1.886a13.177 13.177 0 0 0-7.57-2.362c-2.806 0-5.402.866-7.548 2.35-.636.44-.667 1.343-.12 1.891L22.372 21c.462.462 1.184.506 1.776.23a5.917 5.917 0 0 1 2.517-.562Zm10.521-2.125a.64.64 0 0 0-.961-.049l-4.292 4.28a.72.72 0 0 0-.092.875 5.94 5.94 0 0 1 0 6.038c-.166.282-.14.644.091.874l4.293 4.293a.64.64 0 0 0 .961-.048 13.26 13.26 0 0 0 2.773-8.138 13.22 13.22 0 0 0-2.773-8.125Zm-10.52 14.125a5.941 5.941 0 0 1-3.02-.826.72.72 0 0 0-.873.092l-4.333 4.333a.64.64 0 0 0 .048.961A13.26 13.26 0 0 0 26.626 40c3.076 0 5.902-1.033 8.144-2.785a.64.64 0 0 0 .045-.96l-4.3-4.299a.72.72 0 0 0-.868-.095c-.884.51-1.9.806-2.981.806Z" fill="#000"/></svg>