<svg width="32" height="32" fill="none" xmlns="http://www.w3.org/2000/svg"><path d="M7.294 12a4.667 4.667 0 1 0 0-9.333 4.667 4.667 0 0 0 0 9.333Zm15.334 8h4c1.466 0 2.666 1.2 2.666 2.667v4c0 1.466-1.2 2.666-2.666 2.666h-4a2.674 2.674 0 0 1-2.667-2.666v-4c0-1.467 1.2-2.667 2.667-2.667Z" stroke="#fff" stroke-width="2"/><path d="M16 6.667h3.574c2.466 0 3.613 3.053 1.76 4.68l-10.654 9.32c-1.853 1.613-.706 4.666 1.747 4.666H16" stroke="#fff" stroke-width="2" stroke-linecap="round" stroke-linejoin="round"/><path d="M7.315 7.333h.015m17.317 17.334h.015" stroke="#fff" stroke-width="2.667" stroke-linecap="round" stroke-linejoin="round"/></svg>