<svg width="54" height="54" fill="none" xmlns="http://www.w3.org/2000/svg"><path d="m23.525 36.829.78 1.752a2.95 2.95 0 0 0 5.392 0l.78-1.752a3.234 3.234 0 0 1 3.293-1.898l1.906.203a2.95 2.95 0 0 0 2.697-4.67l-1.13-1.55A3.24 3.24 0 0 1 36.632 27c0-.685.216-1.352.619-1.906l1.129-1.55a2.949 2.949 0 0 0-2.697-4.67l-1.906.203a3.244 3.244 0 0 1-1.96-.417 3.234 3.234 0 0 1-1.333-1.489l-.786-1.752a2.95 2.95 0 0 0-5.392 0l-.78 1.752a3.234 3.234 0 0 1-1.333 1.49 3.244 3.244 0 0 1-1.96.416l-1.912-.203a2.95 2.95 0 0 0-2.697 4.67l1.13 1.55a3.238 3.238 0 0 1 0 3.81l-1.13 1.552a2.947 2.947 0 0 0 1.048 4.364 2.952 2.952 0 0 0 1.649.306l1.906-.204a3.234 3.234 0 0 1 3.3 1.905Z" stroke="#fff" stroke-width="2" stroke-linecap="round" stroke-linejoin="round"/><path d="M26.999 31a4 4 0 1 0 0-8 4 4 0 0 0 0 8Z" stroke="#fff" stroke-width="2" stroke-linecap="round" stroke-linejoin="round"/></svg>