<svg width="54" height="54" fill="none" xmlns="http://www.w3.org/2000/svg"><path d="M38.777 39.111c-3.733 0-7.178-1.756-9.422-4.844a1.692 1.692 0 0 1 .355-2.334c.734-.555 1.778-.378 2.334.356 1.622 2.2 4.066 3.466 6.733 3.466 4.645 0 8.445-3.777 8.445-8.444a8.44 8.44 0 0 0-8.445-8.445 9.122 9.122 0 0 0-7.755 4.378l-5.89 9.8c-2.222 3.711-6.288 6-10.6 6-6.488 0-11.777-5.289-11.777-11.777 0-6.49 5.289-11.778 11.778-11.778 3.733 0 7.177 1.755 9.422 4.844a1.692 1.692 0 0 1-.356 2.334c-.755.555-1.777.377-2.333-.356-1.6-2.156-4.044-3.422-6.711-3.422-4.645 0-8.445 3.777-8.445 8.444a8.44 8.44 0 0 0 8.445 8.445A9.122 9.122 0 0 0 22.31 31.4l5.89-9.8c2.222-3.711 6.288-6 10.6-6 6.488 0 11.777 5.289 11.777 11.778 0 6.489-5.311 11.733-11.8 11.733Z" fill="#fff"/><path d="M14.444 31.778a4.444 4.444 0 1 0 0-8.89 4.444 4.444 0 0 0 0 8.89Zm24.446 0a4.444 4.444 0 1 0 0-8.89 4.444 4.444 0 0 0 0 8.89Z" fill="#fff"/></svg>