<svg width="18" height="17" fill="none" xmlns="http://www.w3.org/2000/svg"><path d="M10.879 15.91a.516.516 0 0 1-.498-.383.518.518 0 0 1 .361-.628 6.319 6.319 0 0 0 4.704-6.11A6.322 6.322 0 0 0 9.13 2.476c-2.955 0-4.894 1.727-5.802 2.772h2.007a.516.516 0 0 1 .007 1.03H2.319a.52.52 0 0 1-.52-.47V2.651c0-.28.233-.511.513-.511s.512.232.512.512v1.631C3.936 3.09 6.032 1.458 9.138 1.458a7.345 7.345 0 0 1 7.339 7.338 7.341 7.341 0 0 1-5.468 7.1.84.84 0 0 1-.13.014Zm-2.225.211c-.014 0-.035 0-.048-.007a7.146 7.146 0 0 1-2.13-.478.52.52 0 0 1-.294-.662.517.517 0 0 1 .663-.293 6.295 6.295 0 0 0 1.836.416h.007a.51.51 0 0 1 .478.519v.027a.52.52 0 0 1-.512.478Zm-3.762-1.468a.507.507 0 0 1-.32-.109 7.384 7.384 0 0 1-1.489-1.604.498.498 0 0 1 .13-.71.519.519 0 0 1 .71.13c.362.525.792.99 1.29 1.379a.526.526 0 0 1 .082.724.508.508 0 0 1-.403.19Zm-2.28-3.331a.5.5 0 0 1-.485-.355 7.308 7.308 0 0 1-.327-2.17c0-.28.232-.513.512-.513s.512.232.512.512c0 .635.095 1.263.28 1.864.013.048.02.102.02.157a.506.506 0 0 1-.355.485.622.622 0 0 1-.157.02Z" fill="#ECA53A"/><path d="M9.138 11.527a2.73 2.73 0 1 0 0-5.462 2.73 2.73 0 0 0 0 5.462Z" fill="#ECA53A"/></svg>