<svg width="54" height="54" fill="none" xmlns="http://www.w3.org/2000/svg"><path d="M22.666 14v4m8-4v4m-8 18.667v4m8-4v4m5.333-17.334h4M36 30h4m-26.667-6.667h4m-4 6.667h4m6.4 6.667H29.6c2.24 0 3.36 0 4.216-.436a4 4 0 0 0 1.748-1.748c.436-.856.436-1.976.436-4.216V24.4c0-2.24 0-3.36-.436-4.216a4 4 0 0 0-1.748-1.748C32.96 18 31.84 18 29.6 18h-5.866c-2.24 0-3.36 0-4.216.436a4 4 0 0 0-1.748 1.748c-.436.856-.436 1.976-.436 4.216v5.867c0 2.24 0 3.36.436 4.216a4 4 0 0 0 1.748 1.748c.855.436 1.975.436 4.216.436Z" stroke="#fff" stroke-width="2.667" stroke-linecap="round" stroke-linejoin="round"/></svg>