<svg width="32" height="32" fill="none" xmlns="http://www.w3.org/2000/svg"><path d="M16 22.667v3.173c0 2.493-1 3.493-3.507 3.493H6.159c-2.493 0-3.493-1-3.493-3.493v-6.333C2.666 17 3.666 16 6.159 16h3.174v3.16c0 2.507 1 3.507 3.493 3.507h3.173Z" stroke="#fff" stroke-width="2" stroke-linecap="round" stroke-linejoin="round"/><path d="M22.667 16v3.16c0 2.507-1 3.507-3.506 3.507h-6.334c-2.493 0-3.493-1-3.493-3.507v-6.333c0-2.494 1-3.494 3.493-3.494h3.174v3.16C16 15 17 16 19.494 16h3.173Z" stroke="#fff" stroke-width="2" stroke-linecap="round" stroke-linejoin="round"/><path d="M29.333 6.16v6.333c0 2.507-1 3.507-3.506 3.507h-6.334C17 16 16 15 16 12.493V6.16c0-2.494 1-3.494 3.493-3.494h6.334c2.506 0 3.506 1 3.506 3.494Z" stroke="#fff" stroke-width="2" stroke-linecap="round" stroke-linejoin="round"/></svg>