<svg width="32" height="32" fill="none" xmlns="http://www.w3.org/2000/svg"><path d="M22.615 8.227a11.506 11.506 0 0 1 4.88 8.2m-22.841.066a11.468 11.468 0 0 1 4.8-8.2M10.92 27.92a11.366 11.366 0 0 0 5.16 1.227c1.787 0 3.467-.4 4.973-1.134M16.08 10.267a3.707 3.707 0 1 0 0-7.414 3.707 3.707 0 0 0 0 7.414ZM6.441 26.56a3.707 3.707 0 1 0 0-7.413 3.707 3.707 0 0 0 0 7.413Zm19.119 0a3.707 3.707 0 1 0 0-7.413 3.707 3.707 0 0 0 0 7.413Z" stroke="#fff" stroke-width="2" stroke-linecap="round" stroke-linejoin="round"/></svg>