<svg width="54" height="54" fill="none" xmlns="http://www.w3.org/2000/svg"><path d="M30.065 41.228c-.44 0-.853-.294-.973-.747a1.011 1.011 0 0 1 .707-1.227 12.342 12.342 0 0 0 9.186-11.933c0-6.8-5.533-12.333-12.333-12.333-5.773 0-9.56 3.373-11.333 5.413h3.92c.546 0 1 .453 1 1 0 .547-.427 1.013-.987 1.013h-5.907c-.093 0-.186-.013-.28-.04a1.197 1.197 0 0 1-.32-.16.878.878 0 0 1-.28-.306 1.157 1.157 0 0 1-.133-.414v-6.16c0-.546.453-1 1-1 .547 0 1 .454 1 1v3.187c2.173-2.333 6.267-5.52 12.333-5.52C34.572 13.001 41 19.428 41 27.334c0 6.507-4.387 12.214-10.68 13.867-.08.013-.174.027-.254.027Zm-4.346.412c-.027 0-.067 0-.094-.013a13.953 13.953 0 0 1-4.16-.933 1.015 1.015 0 0 1-.64-.947 1 1 0 0 1 .067-.346 1.01 1.01 0 0 1 1.293-.574c1.147.454 2.36.72 3.587.814h.013c.534.026.934.48.934 1.013v.053c-.04.52-.48.934-1 .934Zm-7.347-2.866a.991.991 0 0 1-.627-.213 14.43 14.43 0 0 1-2.906-3.134.973.973 0 0 1 .253-1.386c.44-.307 1.093-.187 1.387.253a12.103 12.103 0 0 0 2.52 2.693c.226.187.373.467.373.774 0 .226-.067.453-.213.64a.992.992 0 0 1-.787.373Zm-4.453-6.507a.976.976 0 0 1-.947-.693c-.427-1.373-.64-2.8-.64-4.24 0-.547.453-1 1-1 .547 0 1 .453 1 1 0 1.24.187 2.467.547 3.64.026.093.04.2.04.307 0 .44-.28.813-.694.946-.106.027-.2.04-.306.04Z" fill="#fff"/><path d="M26.665 32.668a5.333 5.333 0 1 0 0-10.667 5.333 5.333 0 0 0 0 10.667Z" fill="#fff"/></svg>