<svg width="54" height="54" fill="none" xmlns="http://www.w3.org/2000/svg"><path d="M39.999 25c-.547 0-1-.453-1-1v-2.666c0-3.44-2.227-5.667-5.667-5.667H19.999c-3.44 0-5.667 2.227-5.667 5.667V24c0 .547-.453 1-1 1-.547 0-1-.453-1-1v-2.666c0-4.587 3.08-7.667 7.667-7.667h13.333c4.587 0 7.667 3.08 7.667 7.667V24c0 .547-.454 1-1 1Zm-6.667 17.333H19.999c-4.587 0-7.667-3.08-7.667-7.666V32c0-.547.453-1 1-1 .547 0 1 .453 1 1v2.667c0 3.44 2.227 5.666 5.667 5.666h13.333c3.44 0 5.667-2.226 5.667-5.666V32c0-.547.453-1 1-1 .546 0 1 .453 1 1v2.667c0 4.586-3.08 7.666-7.667 7.666ZM39.999 29H13.332c-.547 0-1-.453-1-1 0-.547.453-1 1-1h26.667c.546 0 1 .453 1 1 0 .547-.454 1-1 1Z" fill="#fff"/><path d="M32.667 24h-12a.66.66 0 0 1-.667-.666v-2.667c0-1.107.893-2 2-2h9.333c1.107 0 2 .893 2 2v2.667a.66.66 0 0 1-.666.666Zm0 8h-12a.66.66 0 0 0-.667.667v2.666c0 1.107.893 2 2 2h9.333c1.094 0 2-.893 2-2v-2.666a.66.66 0 0 0-.666-.667Z" fill="#fff"/></svg>